{
	"asset":{
		"version":"2.0",
		"generator":"Created using the official Cinema 4D glTF Exporter 1.000x284978"
	},
	"materials":[{
		"pbrMetallicRoughness":{
			"baseColorTexture":{
				"index":0
			},
			"baseColorFactor":[1.0,
			1.0,
			1.0,
			1.0],
			"metallicFactor":1.0,
			"roughnessFactor":1.0
		},
		"name":"Mat",
		"emissiveFactor":[0.0,
		0.0,
		0.0],
		"alphaMode":"OPAQUE",
		"doubleSided":false
	}],
	"textures":[{
		"sampler":0,
		"source":0
	}],
	"scenes":[{
		"nodes":[0]
	}],
	"nodes":[{
		"name":"Landscape.1",
		"mesh":0,
		"translation":[570.564697265625,
		491.25439453125,
		6791.85498046875],
		"rotation":[0.734120786190033,
		-0.02255854569375515,
		0.6782451868057251,
		0.023265855386853219],
		"scale":[1.0,
		1.0,
		1.0]
	}],
	"samplers":[{
		"magFilter":9729,
		"minFilter":9729,
		"wrapS":10497,
		"wrapT":10497
	}],
	"meshes":[{
		"name":"Landscape.1",
		"primitives":[{
			"attributes":{
				"POSITION":1,
				"NORMAL":2,
				"TEXCOORD_0":3
			},
			"indices":0,
			"material":0
		}]
	}],
	"accessors":[{
		"bufferView":0,
		"type":"SCALAR",
		"componentType":5123,
		"count":138678,
		"byteOffset":0,
		"min":[0],
		"max":[25681]
	},
	{
		"bufferView":1,
		"type":"VEC3",
		"componentType":5126,
		"count":25682,
		"byteOffset":0,
		"min":[-11893.919921875,
		-1612.2388916015626,
		-8896.6826171875],
		"max":[-4791.50927734375,
		5270.56787109375,
		-3822.966796875]
	},
	{
		"bufferView":1,
		"type":"VEC3",
		"componentType":5126,
		"count":25682,
		"byteOffset":12,
		"min":[-0.9803921580314636,
		-0.9999995231628418,
		-0.9997532367706299],
		"max":[0.975945770740509,
		0.9999998807907105,
		0.9997171759605408]
	},
	{
		"bufferView":1,
		"type":"VEC2",
		"componentType":5126,
		"count":25682,
		"byteOffset":24,
		"min":[0.009901000186800957,
		0.009259000420570374],
		"max":[0.9923660159111023,
		1.0]
	}],
	"bufferViews":[{
		"buffer":0,
		"byteOffset":0,
		"byteLength":277356,
		"target":34963
	},
	{
		"buffer":0,
		"byteOffset":277356,
		"byteLength":821824,
		"target":34962,
		"byteStride":32
	}],
	"buffers":[{
		"uri":"data:application/octet-stream;base64,",
		"byteLength":1099180
	}],
	"images":[{
		"uri":"data:image/jpeg;base64,"
	}]
}